<svg width="23" height="24" viewBox="0 0 23 24" fill="none" xmlns="http://www.w3.org/2000/svg">
<path d="M13.4163 2.06641H5.74967C5.24134 2.06641 4.75383 2.26834 4.39439 2.62778C4.03494 2.98723 3.83301 3.47474 3.83301 3.98307V19.3164C3.83301 20.3802 4.68592 21.2331 5.74967 21.2331H17.2497C18.3134 21.2331 19.1663 20.3802 19.1663 19.3164V7.81641L13.4163 2.06641ZM17.2497 19.3164H5.74967V3.98307H12.458V8.77474H17.2497V19.3164ZM12.458 12.6081C12.458 13.6622 11.5955 14.5247 10.5413 14.5247C9.48717 14.5247 8.62467 13.6622 8.62467 12.6081C8.62467 11.5539 9.48717 10.6914 10.5413 10.6914C11.5955 10.6914 12.458 11.5539 12.458 12.6081ZM14.3747 17.3997V18.3581H6.70801V17.3997C6.70801 16.1252 9.26676 15.4831 10.5413 15.4831C11.8159 15.4831 14.3747 16.1252 14.3747 17.3997Z" fill="black"/>
</svg>
