<svg width="20" height="21" viewBox="0 0 20 21" fill="none" xmlns="http://www.w3.org/2000/svg">
<g clip-path="url(#clip0_1100_809)">
<path d="M18.7486 4.52302C18.7486 4.93335 18.5223 5.33966 18.0827 5.71875C17.643 6.09784 16.9986 6.44229 16.1862 6.73244C15.3738 7.02258 14.4093 7.25273 13.3478 7.40976C12.2864 7.56678 11.1487 7.6476 9.99981 7.6476C7.67947 7.6476 5.45417 7.31841 3.81345 6.73244C2.17273 6.14646 1.25098 5.35171 1.25098 4.52302C1.25098 4.11269 1.47727 3.70639 1.91694 3.32729C2.35661 2.9482 3.00105 2.60375 3.81345 2.31361C4.62585 2.02346 5.59032 1.79331 6.65178 1.63628C7.71323 1.47926 8.8509 1.39844 9.99981 1.39844C11.1487 1.39844 12.2864 1.47926 13.3478 1.63628C14.4093 1.79331 15.3738 2.02346 16.1862 2.31361C16.9986 2.60375 17.643 2.9482 18.0827 3.32729C18.5223 3.70639 18.7486 4.11269 18.7486 4.52302Z" stroke="#001F3D" stroke-width="1.5" stroke-linecap="round" stroke-linejoin="round"/>
<path d="M18.7486 15.7734C18.7486 16.3219 18.3444 16.8607 17.5765 17.3357C16.8087 17.8107 15.7042 18.2052 14.3742 18.4794C13.0442 18.7536 11.5356 18.898 9.99981 18.898C8.46407 18.898 6.95538 18.7536 5.62539 18.4794C4.2954 18.2052 3.19097 17.8107 2.4231 17.3357C1.65523 16.8607 1.25098 16.3219 1.25098 15.7734" stroke="#001F3D" stroke-width="1.5" stroke-linecap="round" stroke-linejoin="round"/>
<path d="M18.7486 12.0234C18.7486 12.5719 18.3444 13.1107 17.5765 13.5857C16.8086 14.0607 15.7042 14.4552 14.3742 14.7294C13.0442 15.0036 11.5356 15.148 9.99981 15.148C8.46407 15.148 6.95538 15.0036 5.62539 14.7294C4.2954 14.4552 3.19097 14.0607 2.4231 13.5857C1.65523 13.1107 1.25098 12.5719 1.25098 12.0234" stroke="#001F3D" stroke-width="1.5" stroke-linecap="round" stroke-linejoin="round"/>
<path d="M18.7486 8.27344C18.7486 8.82192 18.3444 9.36073 17.5765 9.83573C16.8087 10.3107 15.7042 10.7052 14.3742 10.9794C13.0442 11.2536 11.5356 11.398 9.99981 11.398C8.46407 11.398 6.95538 11.2536 5.62539 10.9794C4.2954 10.7052 3.19097 10.3107 2.4231 9.83573C1.65523 9.36073 1.25098 8.82192 1.25098 8.27344" stroke="#001F3D" stroke-width="1.5" stroke-linecap="round" stroke-linejoin="round"/>
<path d="M1.25098 4.52344V15.7719" stroke="#001F3D" stroke-width="1.5" stroke-linecap="round" stroke-linejoin="round"/>
<path d="M18.749 4.52344V15.7719" stroke="#001F3D" stroke-width="1.5" stroke-linecap="round" stroke-linejoin="round"/>
</g>
<defs>
<clipPath id="clip0_1100_809">
<rect width="20" height="20" fill="white" transform="translate(0 0.148438)"/>
</clipPath>
</defs>
</svg>
