<svg width="24" height="25" viewBox="0 0 24 25" fill="none" xmlns="http://www.w3.org/2000/svg">
<path d="M6.00008 21.6502C5.35101 21.6501 4.71478 21.4694 4.16247 21.1285C3.61016 20.7875 3.16354 20.2997 2.87252 19.7196C2.58149 19.1394 2.45753 18.4897 2.51448 17.8432C2.57143 17.1966 2.80704 16.5786 3.195 16.0582C3.58296 15.5379 4.10798 15.1356 4.71138 14.8965C5.31478 14.6573 5.9728 14.5907 6.61191 14.704C7.25101 14.8173 7.84602 15.1061 8.33045 15.5381C8.81487 15.97 9.16963 16.5282 9.35508 17.1502H15.0001V15.1502H17.0001V9.39225L14.7571 7.15025H9.00008V9.15025H3.00008V3.15025H9.00008V5.15025H14.7571L18.0001 1.90625L22.2431 6.15025L19.0001 9.39125V15.1502H21.0001V21.1502H15.0001V19.1502H9.35508C9.1394 19.8725 8.69642 20.506 8.09197 20.9564C7.48753 21.4068 6.75388 21.6501 6.00008 21.6502ZM6.00008 16.6502C5.60226 16.6502 5.22072 16.8083 4.93942 17.0896C4.65812 17.3709 4.50008 17.7524 4.50008 18.1502C4.50008 18.5481 4.65812 18.9296 4.93942 19.2109C5.22072 19.4922 5.60226 19.6502 6.00008 19.6502C6.3979 19.6502 6.77944 19.4922 7.06074 19.2109C7.34204 18.9296 7.50008 18.5481 7.50008 18.1502C7.50008 17.7524 7.34204 17.3709 7.06074 17.0896C6.77944 16.8083 6.3979 16.6502 6.00008 16.6502ZM19.0001 17.1502H17.0001V19.1502H19.0001V17.1502ZM18.0001 4.73625L16.5861 6.15025L18.0001 7.56425L19.4141 6.15025L18.0001 4.73625ZM7.00008 5.15025H5.00008V7.15025H7.00008V5.15025Z" fill="black"/>
</svg>
