<svg width="40" height="40" viewBox="0 0 40 40" fill="none" xmlns="http://www.w3.org/2000/svg">
<circle cx="20" cy="20" r="20" fill="#FBDA97" fill-opacity="0.7"/>
<path d="M17.1953 17.765C17.4231 17.0633 17.8405 16.4383 18.4013 15.9591C18.9621 15.4798 19.6446 15.165 20.3732 15.0494C21.1018 14.9338 21.8482 15.022 22.5298 15.3042C23.2114 15.5863 23.8018 16.0515 24.2355 16.6482C24.6692 17.245 24.9295 17.95 24.9875 18.6855C25.0455 19.4209 24.899 20.1581 24.5642 20.8154C24.2294 21.4728 23.7193 22.0248 23.0903 22.4103C22.4614 22.7958 21.738 22.9999 21.0003 23V24M21.0503 28V28.1H20.9503V28H21.0503Z" stroke="#E88A17" stroke-width="2" stroke-linecap="round" stroke-linejoin="round"/>
</svg>
