<svg width="41" height="40" viewBox="0 0 41 40" fill="none" xmlns="http://www.w3.org/2000/svg">
<path opacity="0.21" fill-rule="evenodd" clip-rule="evenodd" d="M40.5 20C40.5 31.0457 31.5457 40 20.5 40C9.45431 40 0.5 31.0457 0.5 20C0.5 8.95431 9.45431 0 20.5 0C31.5457 0 40.5 8.95431 40.5 20Z" fill="#FEC53D"/>
<path fill-rule="evenodd" clip-rule="evenodd" d="M10.5 16.2111L19.1003 21.1765C19.1929 21.23 19.29 21.2686 19.3889 21.2931V30.9233L11.1134 26.0258C10.7332 25.8008 10.5 25.3919 10.5 24.9501V16.2111ZM30.4998 16.0791V24.9501C30.4998 25.3918 30.2666 25.8008 29.8864 26.0258L21.6109 30.9233V21.2087C21.6311 21.1987 21.6511 21.1879 21.6709 21.1765L30.4998 16.0791Z" fill="#FEC53D"/>
<path opacity="0.499209" fill-rule="evenodd" clip-rule="evenodd" d="M10.7705 13.8013C10.8756 13.6686 11.0081 13.5565 11.1627 13.4742L19.9127 8.81373C20.2801 8.61808 20.7207 8.61808 21.088 8.81373L29.838 13.4742C29.9571 13.5376 30.0632 13.6188 30.1537 13.7134L20.5603 19.2522C20.4972 19.2886 20.439 19.3303 20.386 19.3763C20.333 19.3303 20.2749 19.2886 20.2118 19.2522L10.7705 13.8013Z" fill="#FEC53D"/>
</svg>
