<svg width="41" height="40" viewBox="0 0 41 40" fill="none" xmlns="http://www.w3.org/2000/svg">
<path opacity="0.21" fill-rule="evenodd" clip-rule="evenodd" d="M40.5 20C40.5 31.0457 31.5457 40 20.5 40C9.45431 40 0.5 31.0457 0.5 20C0.5 8.95431 9.45431 0 20.5 0C31.5457 0 40.5 8.95431 40.5 20Z" fill="#4AD991"/>
<path d="M13.2411 27.2591H28.7966C29.3694 27.2591 29.8337 27.7234 29.8337 28.2961C29.8337 28.8689 29.3694 29.3332 28.7966 29.3332H12.204C11.6313 29.3332 11.167 28.8689 11.167 28.2961V11.7035C11.167 11.1308 11.6313 10.6665 12.204 10.6665C12.7768 10.6665 13.2411 11.1308 13.2411 11.7035V27.2591Z" fill="#4AD991"/>
<path opacity="0.5" d="M17.109 22.783C16.7173 23.2008 16.061 23.222 15.6432 22.8303C15.2254 22.4386 15.2042 21.7823 15.5959 21.3644L19.4848 17.2163C19.8636 16.8122 20.4932 16.7772 20.9145 17.1367L23.9839 19.7559L27.983 14.6904C28.3379 14.2409 28.99 14.1641 29.4395 14.519C29.889 14.8739 29.9658 15.526 29.6109 15.9756L24.9442 21.8867C24.5797 22.3484 23.9046 22.4148 23.4571 22.0329L20.321 19.3569L17.109 22.783Z" fill="#4AD991"/>
</svg>
