<svg width="41" height="40" viewBox="0 0 41 40" fill="none" xmlns="http://www.w3.org/2000/svg">
<path opacity="0.21" fill-rule="evenodd" clip-rule="evenodd" d="M40.5 20C40.5 31.0457 31.5457 40 20.5 40C9.45431 40 0.5 31.0457 0.5 20C0.5 8.95431 9.45431 0 20.5 0C31.5457 0 40.5 8.95431 40.5 20Z" fill="#8280FF"/>
<path opacity="0.587821" fill-rule="evenodd" clip-rule="evenodd" d="M14.6621 16.3333C14.6621 18.1742 16.1545 19.6666 17.9954 19.6666C19.8363 19.6666 21.3287 18.1742 21.3287 16.3333C21.3287 14.4924 19.8363 13 17.9954 13C16.1545 13 14.6621 14.4924 14.6621 16.3333ZM22.9941 19.666C22.9941 21.0466 24.1134 22.1659 25.4941 22.1659C26.8748 22.1659 27.994 21.0466 27.994 19.666C27.994 18.2853 26.8748 17.166 25.4941 17.166C24.1134 17.166 22.9941 18.2853 22.9941 19.666Z" fill="#8280FF"/>
<path fill-rule="evenodd" clip-rule="evenodd" d="M17.986 21.333C14.0515 21.333 10.8235 23.3551 10.5005 27.3322C10.4829 27.5489 10.8973 27.9996 11.1062 27.9996H24.872C25.498 27.9996 25.5077 27.4958 25.498 27.3329C25.2538 23.244 21.9758 21.333 17.986 21.333ZM25.1658 23.0006C26.2118 24.3932 26.8317 26.1242 26.8317 28H30.0453C30.4974 28 30.5045 27.6222 30.4974 27.5C30.323 24.4666 28.0048 23.0314 25.1658 23.0006Z" fill="#8280FF"/>
</svg>
