<svg width="45" height="45" viewBox="0 0 45 45" fill="none" xmlns="http://www.w3.org/2000/svg">
<rect y="0.5" width="44.3725" height="44" rx="22" fill="#E88A17" fill-opacity="0.1"/>
<path d="M22.1485 28.3247H28.7748C29.0328 28.3391 29.2903 28.2872 29.5226 28.174C29.7549 28.0607 29.9543 27.8898 30.1018 27.6776C30.2493 27.4654 30.34 27.219 30.3653 26.9618C30.3905 26.7046 30.3495 26.4452 30.246 26.2083C29.8957 25.1497 28.4994 23.8799 28.4994 22.6306C28.4994 19.8574 28.4994 19.1277 27.1333 17.4969C26.6907 16.9725 26.1427 16.5472 25.5249 16.2485L24.763 15.8788C24.6348 15.8021 24.5242 15.6992 24.4385 15.5768C24.3528 15.4544 24.2939 15.3152 24.2658 15.1685C24.1897 14.6746 23.9285 14.2281 23.5353 13.9197C23.1421 13.6112 22.6464 13.4639 22.1485 13.5075C21.6597 13.4782 21.1775 13.6321 20.796 13.9392C20.4146 14.2463 20.1614 14.6846 20.0857 15.1685C20.0515 15.3201 19.9843 15.4623 19.889 15.5851C19.7936 15.7078 19.6725 15.8081 19.534 15.8788L18.7722 16.2485C18.1547 16.5473 17.607 16.9726 17.1647 17.4969C15.7996 19.1277 15.7996 19.8574 15.7996 22.6306C15.7996 23.8799 14.4665 25.0222 14.1163 26.1441C13.9051 26.8223 13.7884 28.3247 15.5563 28.3247H22.1485Z" stroke="#E11212" stroke-width="1.5" stroke-linecap="round" stroke-linejoin="round"/>
<path d="M25.3233 28.3242C25.3319 28.7435 25.2557 29.1602 25.0992 29.5493C24.9427 29.9384 24.7091 30.2919 24.4126 30.5884C24.116 30.885 23.7626 31.1185 23.3735 31.275C22.9844 31.4316 22.5676 31.5078 22.1483 31.4992C21.729 31.5081 21.3122 31.432 20.923 31.2756C20.5339 31.1192 20.1804 30.8856 19.8838 30.589C19.5873 30.2924 19.3539 29.9388 19.1976 29.5496C19.0413 29.1604 18.9653 28.7436 18.9744 28.3242" stroke="#E11212" stroke-width="1.5" stroke-linecap="round" stroke-linejoin="round"/>
</svg>
