<svg width="38" height="32" viewBox="0 0 38 32" fill="none" xmlns="http://www.w3.org/2000/svg">
<rect x="0.989258" width="37.0105" height="32" rx="4" fill="#E88A17" fill-opacity="0.1"/>
<path d="M16.9484 23.1187H25.047C25.3624 23.1364 25.677 23.073 25.961 22.9345C26.2449 22.7961 26.4886 22.5873 26.6689 22.3279C26.8492 22.0685 26.96 21.7673 26.9909 21.453C27.0217 21.1386 26.9716 20.8216 26.8451 20.5321C26.417 19.2383 24.7105 17.6863 24.7105 16.1594C24.7105 12.7701 24.7105 11.8782 23.0408 9.88501C22.4999 9.24411 21.8301 8.72425 21.075 8.35924L20.1438 7.90733C19.9871 7.81366 19.8519 7.68788 19.7471 7.53827C19.6424 7.38865 19.5705 7.21857 19.5362 7.0392C19.4431 6.43556 19.1239 5.88991 18.6433 5.51293C18.1628 5.13596 17.5568 4.95587 16.9484 5.00919C16.3509 4.97332 15.7616 5.16143 15.2954 5.5368C14.8292 5.91218 14.5197 6.44785 14.4272 7.0392C14.3854 7.2245 14.3033 7.39833 14.1868 7.54836C14.0702 7.69838 13.9221 7.82094 13.753 7.90733L12.8218 8.35924C12.0671 8.72439 11.3978 9.24425 10.8572 9.88501C9.18871 11.8782 9.18871 12.7701 9.18871 16.1594C9.18871 17.6863 7.55947 19.0825 7.13135 20.4537C6.87329 21.2825 6.73058 23.1187 8.8914 23.1187H16.9484Z" stroke="#E88A17" stroke-width="1.5" stroke-linecap="round" stroke-linejoin="round"/>
<path d="M20.8289 23.1187C20.8395 23.6311 20.7463 24.1404 20.555 24.616C20.3637 25.0916 20.0783 25.5235 19.7158 25.886C19.3534 26.2484 18.9214 26.5339 18.4458 26.7252C17.9703 26.9164 17.461 27.0096 16.9485 26.9991C16.436 27.01 15.9266 26.917 15.4509 26.7258C14.9753 26.5347 14.5432 26.2492 14.1808 25.8867C13.8184 25.5241 13.5331 25.092 13.342 24.6163C13.151 24.1406 13.0582 23.6312 13.0692 23.1187" stroke="#E88A17" stroke-width="1.5" stroke-linecap="round" stroke-linejoin="round"/>
<circle cx="29.5" cy="7.5" r="2.5" fill="#E11212"/>
</svg>
