<svg width="22" height="23" viewBox="0 0 22 23" fill="none" xmlns="http://www.w3.org/2000/svg">
<path d="M8.25 19.3984H13.75M8.25 19.3984V14.8151M8.25 19.3984H3.3C3.15413 19.3984 3.01424 19.3405 2.91109 19.2373C2.80795 19.1342 2.75 18.9943 2.75 18.8484V15.3651C2.75 15.2192 2.80795 15.0793 2.91109 14.9762C3.01424 14.8731 3.15413 14.8151 3.3 14.8151H8.25M13.75 19.3984V8.39844M13.75 19.3984H18.7C18.8459 19.3984 18.9858 19.3405 19.0889 19.2373C19.1921 19.1342 19.25 18.9943 19.25 18.8484V3.44844C19.25 3.30257 19.1921 3.16267 19.0889 3.05953C18.9858 2.95638 18.8459 2.89844 18.7 2.89844H14.3C14.1541 2.89844 14.0142 2.95638 13.9111 3.05953C13.8079 3.16267 13.75 3.30257 13.75 3.44844V8.39844M8.25 14.8151V8.94844C8.25 8.80257 8.30795 8.66267 8.41109 8.55953C8.51424 8.45638 8.65413 8.39844 8.8 8.39844H13.75" stroke="black" stroke-width="1.5"/>
</svg>
