<svg width="31" height="32" viewBox="0 0 31 32" fill="none" xmlns="http://www.w3.org/2000/svg">
<path d="M23.1502 16.2952V15.0035H27.3223V16.2952H23.1502ZM24.5517 24.6419L21.2127 22.1374L22.0174 21.1144L25.3564 23.6176L24.5517 24.6419ZM21.918 10.0848L21.1133 9.06184L24.4522 6.55859L25.257 7.58159L21.918 10.0848ZM7.10386 23.3503V18.4316H5.76311C5.18445 18.4316 4.69189 18.2284 4.28545 17.8219C3.879 17.4155 3.67578 16.9229 3.67578 16.3443V14.9544C3.67578 14.3758 3.879 13.8832 4.28545 13.4768C4.69189 13.0703 5.18445 12.8671 5.76311 12.8671H10.581L15.6986 9.83684V21.4618L10.581 18.4316H8.39553V23.3503H7.10386ZM14.4069 19.1614V12.1373L10.9453 14.1588H5.76182C5.56291 14.1588 5.38035 14.2414 5.21416 14.4068C5.04796 14.5721 4.9653 14.7546 4.96616 14.9544V16.3443C4.96616 16.5432 5.04882 16.7257 5.21416 16.8919C5.37949 17.0581 5.56205 17.1408 5.76182 17.1399H10.9427L14.4069 19.1614ZM17.9849 19.381V11.9177C18.4163 12.3181 18.7642 12.8443 19.0285 13.4961C19.292 14.1471 19.4238 14.8644 19.4238 15.6481C19.4238 16.4317 19.292 17.149 19.0285 17.8C18.765 18.451 18.4167 18.9771 17.9836 19.3784" fill="#FAFAFA"/>
</svg>
