<svg width="22" height="23" viewBox="0 0 24 24" fill="none" xmlns="http://www.w3.org/2000/svg">
  <path fill-rule="evenodd" clip-rule="evenodd" d="M12 15.6C13.9882 15.6 15.6 13.9882 15.6 12C15.6 10.0118 13.9882 8.4 12 8.4C10.0118 8.4 8.4 10.0118 8.4 12C8.4 13.9882 10.0118 15.6 12 15.6ZM22 13.2V10.8L19.56 9.72C19.3985 9.10183 19.1424 8.5157 18.804 7.98L20.148 5.388L18.612 3.852L16.02 5.196C15.4843 4.8576 14.8982 4.60149 14.28 4.44L13.2 2H10.8L9.72 4.44C9.10183 4.60149 8.5157 4.8576 7.98 5.196L5.388 3.852L3.852 5.388L5.196 7.98C4.8576 8.5157 4.60149 9.10183 4.44 9.72L2 10.8V13.2L4.44 14.28C4.60149 14.8982 4.8576 15.4843 5.196 16.02L3.852 18.612L5.388 20.148L7.98 18.804C8.5157 19.1424 9.10183 19.3985 9.72 19.56L10.8 22H13.2L14.28 19.56C14.8982 19.3985 15.4843 19.1424 16.02 18.804L18.612 20.148L20.148 18.612L18.804 16.02C19.1424 15.4843 19.3985 14.8982 19.56 14.28L22 13.2ZM12 18C9.243 18 7 15.757 7 13C7 10.243 9.243 8 12 8C14.757 8 17 10.243 17 13C17 15.757 14.757 18 12 18Z" fill="#FAFAFA"/>
</svg>
