<svg width="36" height="36" viewBox="0 0 36 36" fill="none" xmlns="http://www.w3.org/2000/svg">
<rect x="0.989502" y="0.5" width="35" height="35" rx="4" fill="#FCF3E7"/>
<path fill-rule="evenodd" clip-rule="evenodd" d="M18.4895 14.4062C17.5364 14.4062 16.6223 14.7849 15.9483 15.4588C15.2744 16.1328 14.8958 17.0469 14.8958 18C14.8958 18.9531 15.2744 19.8672 15.9483 20.5412C16.6223 21.2151 17.5364 21.5938 18.4895 21.5938C19.4426 21.5938 20.3567 21.2151 21.0307 20.5412C21.7046 19.8672 22.0833 18.9531 22.0833 18C22.0833 17.0469 21.7046 16.1328 21.0307 15.4588C20.3567 14.7849 19.4426 14.4062 18.4895 14.4062ZM16.3333 18C16.3333 17.4281 16.5604 16.8797 16.9648 16.4753C17.3692 16.0709 17.9176 15.8438 18.4895 15.8438C19.0614 15.8438 19.6098 16.0709 20.0142 16.4753C20.4186 16.8797 20.6458 17.4281 20.6458 18C20.6458 18.5719 20.4186 19.1203 20.0142 19.5247C19.6098 19.9291 19.0614 20.1562 18.4895 20.1562C17.9176 20.1562 17.3692 19.9291 16.9648 19.5247C16.5604 19.1203 16.3333 18.5719 16.3333 18Z" fill="#E88A17"/>
<path fill-rule="evenodd" clip-rule="evenodd" d="M18.4655 7.69922C18.0391 7.69922 17.6835 7.69922 17.3922 7.71839C17.0944 7.73079 16.8007 7.79231 16.523 7.90047C16.2031 8.0328 15.9125 8.22685 15.6677 8.47153C15.4228 8.7162 15.2286 9.00671 15.096 9.32647C14.9571 9.66189 14.9197 10.0165 14.9044 10.4017C14.9028 10.5426 14.8655 10.6808 14.796 10.8033C14.7264 10.9259 14.6269 11.0287 14.5067 11.1023C14.3829 11.1698 14.244 11.2048 14.1031 11.204C13.9621 11.2032 13.8236 11.1665 13.7007 11.0975C13.3595 10.9173 13.0337 10.7726 12.6734 10.7247C12.3302 10.6795 11.9816 10.7024 11.6473 10.7921C11.313 10.8817 10.9996 11.0362 10.7251 11.247C10.4929 11.4337 10.2932 11.6575 10.1338 11.9092C9.97086 12.1526 9.79261 12.4602 9.57986 12.8292L9.55591 12.8713C9.3422 13.2403 9.16491 13.5479 9.03649 13.8105C8.90232 14.0846 8.79691 14.3548 8.75857 14.6538C8.66715 15.3467 8.85467 16.0475 9.27991 16.6021C9.50128 16.8906 9.78974 17.1005 10.1156 17.3056C10.2371 17.3774 10.3383 17.4789 10.4097 17.6006C10.4811 17.7223 10.5204 17.8602 10.5238 18.0013C10.5204 18.1424 10.4811 18.2803 10.4097 18.402C10.3383 18.5237 10.2371 18.6252 10.1156 18.6971C9.78974 18.9021 9.50224 19.112 9.27991 19.4005C9.06918 19.675 8.9146 19.9884 8.82499 20.3227C8.73537 20.657 8.71248 21.0056 8.75761 21.3488C8.79691 21.6478 8.90136 21.918 9.03553 22.1921C9.16491 22.4547 9.3422 22.7623 9.55591 23.1313L9.57986 23.1734C9.79261 23.5424 9.97086 23.85 10.1338 24.0934C10.3034 24.3455 10.4855 24.5726 10.7251 24.7547C10.9995 24.9656 11.3129 25.1203 11.6472 25.2101C11.9815 25.2999 12.3302 25.3229 12.6734 25.2779C13.0337 25.23 13.3595 25.0863 13.7007 24.9051C13.8235 24.8362 13.9618 24.7996 14.1026 24.7987C14.2434 24.7979 14.3821 24.8329 14.5057 24.9003C14.6266 24.9733 14.7267 25.076 14.7967 25.1986C14.8666 25.3212 14.904 25.4597 14.9053 25.6009C14.9197 25.9861 14.9571 26.3407 15.097 26.6761C15.2293 26.996 15.4234 27.2866 15.668 27.5315C15.9127 27.7763 16.2032 27.9705 16.523 28.1031C16.8009 28.2181 17.0884 28.2631 17.3922 28.2833C17.6835 28.3034 18.0391 28.3034 18.4655 28.3034H18.5134C18.9399 28.3034 19.2954 28.3034 19.5868 28.2842C19.8915 28.2631 20.1781 28.2181 20.456 28.1021C20.7758 27.9698 21.0665 27.7758 21.3113 27.5311C21.5562 27.2864 21.7504 26.9959 21.8829 26.6761C22.0219 26.3407 22.0593 25.9861 22.0746 25.6009C22.076 25.4598 22.1132 25.3214 22.1828 25.1987C22.2524 25.076 22.352 24.973 22.4723 24.8994C22.5961 24.832 22.7351 24.7971 22.876 24.7981C23.017 24.7991 23.1554 24.836 23.2783 24.9051C23.6194 25.0853 23.9453 25.23 24.3056 25.277C24.9985 25.3684 25.6993 25.1809 26.2539 24.7556C26.4935 24.5716 26.6756 24.3455 26.8452 24.0934C27.0081 23.85 27.1864 23.5424 27.3991 23.1734L27.4231 23.1313C27.6368 22.7623 27.8141 22.4547 27.9425 22.1921C28.0767 21.918 28.1821 21.6468 28.2204 21.3488C28.3118 20.6559 28.1243 19.9551 27.6991 19.4005C27.4777 19.112 27.1892 18.9021 26.8634 18.6971C26.7419 18.6252 26.6407 18.5237 26.5693 18.402C26.4979 18.2803 26.4586 18.1424 26.4552 18.0013C26.4552 17.7349 26.6008 17.4704 26.8634 17.3056C27.1892 17.1005 27.4767 16.8906 27.6991 16.6021C27.9098 16.3276 28.0644 16.0142 28.154 15.6799C28.2436 15.3456 28.2665 14.997 28.2214 14.6538C28.1758 14.3594 28.0819 14.0744 27.9434 13.8105C27.7798 13.4921 27.6063 13.1789 27.4231 12.8713L27.3991 12.8292C27.2241 12.5168 27.0393 12.21 26.8452 11.9092C26.6858 11.6577 26.486 11.4343 26.2539 11.2479C25.9794 11.037 25.6661 10.8823 25.3318 10.7925C24.9975 10.7027 24.6488 10.6797 24.3056 10.7247C23.9453 10.7726 23.6194 10.9163 23.2783 11.0975C23.1555 11.1663 23.0172 11.2029 22.8764 11.2037C22.7356 11.2046 22.5969 11.1697 22.4733 11.1023C22.3527 11.029 22.2528 10.9262 22.1829 10.8037C22.113 10.6811 22.0754 10.5428 22.0737 10.4017C22.0593 10.0165 22.0219 9.66189 21.882 9.32647C21.7497 9.00662 21.5556 8.71598 21.3109 8.47114C21.0663 8.2263 20.7757 8.03206 20.456 7.89951C20.1781 7.78451 19.8906 7.73947 19.5868 7.71934C19.2954 7.69922 18.9399 7.69922 18.5134 7.69922H18.4655ZM17.0731 9.22776C17.1469 9.19709 17.259 9.1693 17.4899 9.15301C17.7267 9.13672 18.0333 9.13672 18.4895 9.13672C18.9457 9.13672 19.2523 9.13672 19.489 9.15301C19.72 9.1693 19.8321 9.19709 19.9059 9.22776C20.2001 9.34947 20.433 9.58234 20.5547 9.87655C20.593 9.96855 20.6247 10.1133 20.6371 10.4554C20.6659 11.2144 21.0578 11.9456 21.7536 12.3471C22.4493 12.7496 23.2783 12.7228 23.9501 12.3682C24.2529 12.2082 24.3938 12.1631 24.4934 12.1507C24.8083 12.1091 25.1268 12.1942 25.3789 12.3874C25.4422 12.4363 25.5227 12.5196 25.6521 12.7113C25.7853 12.9087 25.9386 13.1742 26.1667 13.569C26.3948 13.9638 26.5472 14.2303 26.6516 14.443C26.7542 14.651 26.7858 14.7621 26.7954 14.8417C26.837 15.1566 26.7518 15.4751 26.5587 15.7272C26.4973 15.8067 26.3881 15.9064 26.0987 16.0885C25.4547 16.4929 25.0177 17.1982 25.0177 18.0013C25.0177 18.8044 25.4547 19.5097 26.0987 19.9141C26.3881 20.0962 26.4973 20.1959 26.5587 20.2754C26.7522 20.5275 26.8366 20.8456 26.7954 21.1609C26.7858 21.2405 26.7532 21.3526 26.6516 21.5596C26.5472 21.7733 26.3948 22.0388 26.1667 22.4336C25.9386 22.8284 25.7843 23.0939 25.6521 23.2913C25.5227 23.483 25.4422 23.5663 25.3789 23.6152C25.1268 23.8084 24.8083 23.8935 24.4934 23.8519C24.3938 23.8395 24.2539 23.7944 23.9501 23.6344C23.2792 23.2798 22.4493 23.253 21.7536 23.6545C21.0578 24.057 20.6659 24.7882 20.6371 25.5472C20.6247 25.8893 20.593 26.0341 20.5547 26.1261C20.4945 26.2715 20.4062 26.4037 20.2949 26.515C20.1836 26.6264 20.0514 26.7146 19.9059 26.7748C19.8321 26.8055 19.72 26.8333 19.489 26.8496C19.2523 26.8659 18.9457 26.8659 18.4895 26.8659C18.0333 26.8659 17.7267 26.8659 17.4899 26.8496C17.259 26.8333 17.1469 26.8055 17.0731 26.7748C16.9276 26.7146 16.7954 26.6264 16.6841 26.515C16.5728 26.4037 16.4845 26.2715 16.4243 26.1261C16.3859 26.0341 16.3543 25.8893 16.3419 25.5472C16.3131 24.7882 15.9212 24.057 15.2254 23.6555C14.5297 23.253 13.7007 23.2798 13.0289 23.6344C12.7261 23.7944 12.5852 23.8395 12.4855 23.8519C12.1707 23.8935 11.8521 23.8084 11.6 23.6152C11.5368 23.5663 11.4563 23.483 11.3269 23.2913C11.1467 23.0107 10.975 22.7247 10.8123 22.4336C10.5842 22.0388 10.4318 21.7723 10.3274 21.5596C10.2248 21.3516 10.1932 21.2405 10.1836 21.1609C10.142 20.8461 10.2272 20.5275 10.4203 20.2754C10.4817 20.1959 10.5909 20.0962 10.8803 19.9141C11.5243 19.5097 11.9613 18.8044 11.9613 18.0013C11.9613 17.1982 11.5243 16.4929 10.8803 16.0885C10.5909 15.9064 10.4817 15.8067 10.4203 15.7272C10.2272 15.4751 10.142 15.1566 10.1836 14.8417C10.1932 14.7621 10.2258 14.65 10.3274 14.443C10.4318 14.2293 10.5842 13.9638 10.8123 13.569C11.0404 13.1742 11.1947 12.9087 11.3269 12.7113C11.4563 12.5196 11.5368 12.4363 11.6 12.3874C11.8521 12.1942 12.1707 12.1091 12.4855 12.1507C12.5852 12.1631 12.7251 12.2082 13.0289 12.3682C13.6997 12.7228 14.5297 12.7496 15.2254 12.3471C15.9212 11.9456 16.3131 11.2144 16.3419 10.4554C16.3543 10.1133 16.3859 9.96855 16.4243 9.87655C16.546 9.58234 16.7789 9.34947 17.0731 9.22776Z" fill="#E88A17"/>
</svg>
