<svg width="22" height="23" viewBox="0 0 22 23" fill="none" xmlns="http://www.w3.org/2000/svg">
<path d="M10.0764 13.7179C10.9979 13.1044 11.6974 12.2108 12.0716 11.169C12.4459 10.1273 12.4749 8.99271 12.1545 7.93316C11.8341 6.87362 11.1812 5.94532 10.2923 5.28554C9.4035 4.62576 8.32595 4.26953 7.21901 4.26953C6.11207 4.26953 5.03451 4.62576 4.14568 5.28554C3.25686 5.94532 2.60396 6.87362 2.28352 7.93316C1.96309 8.99271 1.99214 10.1273 2.36637 11.169C2.74061 12.2108 3.44016 13.1044 4.36158 13.7179C2.69482 14.3322 1.27136 15.469 0.303616 16.9586C0.252754 17.0342 0.217426 17.1191 0.199684 17.2085C0.181942 17.2979 0.182141 17.3899 0.200268 17.4791C0.218396 17.5684 0.254091 17.6532 0.305278 17.7286C0.356466 17.804 0.422124 17.8684 0.498438 17.9182C0.574752 17.968 0.660198 18.0021 0.74981 18.0185C0.839422 18.035 0.931413 18.0335 1.02043 18.0141C1.10946 17.9947 1.19373 17.9578 1.26837 17.9055C1.343 17.8533 1.4065 17.7867 1.45518 17.7097C2.07942 16.7496 2.93361 15.9606 3.94018 15.4144C4.94675 14.8683 6.07381 14.5822 7.21901 14.5822C8.36421 14.5822 9.49126 14.8683 10.4978 15.4144C11.5044 15.9606 12.3586 16.7496 12.9828 17.7097C13.0837 17.8595 13.2394 17.9637 13.4165 17.9996C13.5935 18.0356 13.7775 18.0004 13.9288 17.9017C14.0801 17.803 14.1865 17.6488 14.225 17.4723C14.2634 17.2958 14.2309 17.1113 14.1344 16.9586C13.1666 15.469 11.7432 14.3322 10.0764 13.7179ZM3.43776 9.42787C3.43776 8.68001 3.65952 7.94895 4.07501 7.32712C4.4905 6.7053 5.08105 6.22065 5.77198 5.93445C6.46292 5.64826 7.2232 5.57338 7.95669 5.71928C8.69018 5.86518 9.36394 6.22531 9.89275 6.75413C10.4216 7.28294 10.7817 7.9567 10.9276 8.69019C11.0735 9.42368 10.9986 10.184 10.7124 10.8749C10.4262 11.5658 9.94158 12.1564 9.31976 12.5719C8.69793 12.9874 7.96687 13.2091 7.21901 13.2091C6.21651 13.208 5.25539 12.8092 4.54651 12.1004C3.83764 11.3915 3.43889 10.4304 3.43776 9.42787ZM21.4967 17.9099C21.3439 18.0095 21.1579 18.0443 20.9795 18.0068C20.8011 17.9692 20.6449 17.8624 20.5453 17.7097C19.9218 16.749 19.0678 15.9597 18.061 15.4137C17.0542 14.8678 15.9268 14.5826 14.7815 14.5841C14.5992 14.5841 14.4243 14.5117 14.2954 14.3828C14.1664 14.2538 14.094 14.079 14.094 13.8966C14.094 13.7143 14.1664 13.5394 14.2954 13.4105C14.4243 13.2816 14.5992 13.2091 14.7815 13.2091C15.3384 13.2086 15.8882 13.0851 16.3918 12.8474C16.8954 12.6098 17.3403 12.2638 17.6946 11.8343C18.049 11.4047 18.3042 10.9022 18.4418 10.3627C18.5795 9.82312 18.5963 9.25981 18.491 8.713C18.3857 8.16619 18.161 7.64939 17.8328 7.19951C17.5047 6.74963 17.0812 6.37779 16.5926 6.11054C16.1041 5.8433 15.5626 5.68725 15.0068 5.65355C14.4509 5.61986 13.8945 5.70934 13.3773 5.91561C13.293 5.95206 13.2022 5.97125 13.1103 5.97202C13.0184 5.9728 12.9273 5.95515 12.8424 5.92013C12.7575 5.8851 12.6804 5.83341 12.6158 5.7681C12.5512 5.70279 12.5003 5.62519 12.4662 5.53988C12.432 5.45458 12.4154 5.3633 12.4171 5.27144C12.4189 5.17958 12.439 5.089 12.4764 5.00506C12.5137 4.92112 12.5675 4.84551 12.6346 4.78271C12.7016 4.71992 12.7806 4.6712 12.8668 4.63944C14.0506 4.16734 15.3672 4.15035 16.5628 4.59175C17.7583 5.03314 18.748 5.90165 19.341 7.02972C19.934 8.15778 20.0882 9.46548 19.7739 10.7005C19.4596 11.9356 18.699 13.0105 17.6389 13.7179C19.3057 14.3322 20.7291 15.469 21.6969 16.9586C21.7965 17.1113 21.8313 17.2973 21.7938 17.4757C21.7562 17.6541 21.6494 17.8103 21.4967 17.9099Z" fill="black"/>
</svg>
