<svg width="25" height="19" viewBox="0 0 25 19" fill="none" xmlns="http://www.w3.org/2000/svg">
<path d="M20.1502 10.2952V9.00351H24.3223V10.2952H20.1502ZM21.5517 18.6419L18.2127 16.1374L19.0174 15.1144L22.3564 17.6176L21.5517 18.6419ZM18.918 4.08484L18.1133 3.06184L21.4522 0.558594L22.257 1.58159L18.918 4.08484ZM4.10386 17.3503V12.4316H2.76311C2.18445 12.4316 1.69189 12.2284 1.28545 11.8219C0.879004 11.4155 0.675781 10.9229 0.675781 10.3443V8.95443C0.675781 8.37576 0.879004 7.8832 1.28545 7.47676C1.69189 7.07032 2.18445 6.86709 2.76311 6.86709H7.58103L12.6986 3.83684V15.4618L7.58103 12.4316H5.39553V17.3503H4.10386ZM11.4069 13.1614V6.1373L7.94528 8.15876H2.76182C2.56291 8.15876 2.38035 8.24143 2.21416 8.40676C2.04796 8.57209 1.9653 8.75465 1.96616 8.95443V10.3443C1.96616 10.5432 2.04882 10.7257 2.21416 10.8919C2.37949 11.0581 2.56205 11.1408 2.76182 11.1399H7.9427L11.4069 13.1614ZM14.9849 13.381V5.91772C15.4163 6.31814 15.7642 6.84427 16.0285 7.49614C16.292 8.14714 16.4238 8.86444 16.4238 9.64805C16.4238 10.4317 16.292 11.149 16.0285 11.8C15.765 12.451 15.4167 12.9771 14.9836 13.3784" fill="#0B0A0A"/>
</svg>
